<?xml version="1.0" encoding="UTF-8"?>
<svg width="1805px" height="1108px" viewBox="0 0 1805 1108" version="1.1" xmlns="http://www.w3.org/2000/svg" xmlns:xlink="http://www.w3.org/1999/xlink">
    <title>bg-day</title>
    <g id="Page-1" stroke="none" stroke-width="1" fill="none" fill-rule="evenodd">
        <g id="bg-day" transform="translate(3.000000, 4.000000)" fill-rule="nonzero">
            <polygon id="Path" stroke="#6EBDFF" fill="#6EBDFF" points="297 1101 227 1096 0 1101"></polygon>
            <polygon id="Path" stroke="#77CDFF" fill="#77CDFF" points="1180 1077 1019 1077 899 1101"></polygon>
            <polygon id="Path" stroke="#74C8FF" fill="#74C8FF" points="1437 1101 1180 1077 899 1101"></polygon>
            <polygon id="Path" stroke="#6CBAFF" fill="#6CBAFF" points="1763 79 1641 94 1631 301"></polygon>
            <polygon id="Path" stroke="#6FC0FF" fill="#6FC0FF" points="1768 0 1489 0 1726 14"></polygon>
            <polygon id="Path" stroke="#69B6F9" fill="#69B6F9" points="1768 646 1637 754 1700 808"></polygon>
            <polygon id="Path" stroke="#6CBBFF" fill="#6CBBFF" points="1774 83 1768 0 1763 79"></polygon>
            <polygon id="Path" stroke="#6CBBFF" fill="#6CBBFF" points="1786 323 1774 83 1763 79"></polygon>
            <polygon id="Path" stroke="#6CBBFF" fill="#6CBBFF" points="1786 323 1763 79 1631 301"></polygon>
            <polygon id="Path" stroke="#6AB7FB" fill="#6AB7FB" points="1786 323 1631 301 1700 338"></polygon>
            <polygon id="Path" stroke="#6FBFFF" fill="#6FBFFF" points="1786 323 1700 338 1740 499"></polygon>
            <polygon id="Path" stroke="#6DBDFF" fill="#6DBDFF" points="1798 791 1768 646 1700 808"></polygon>
            <polygon id="Path" stroke="#6EBDFF" fill="#6EBDFF" points="1798 791 1700 808 1734 824"></polygon>
            <polygon id="Path" stroke="#66B0F2" fill="#66B0F2" points="1799 623 1768 646 1798 791"></polygon>
            <polygon id="Path" stroke="#6AB7FB" fill="#6AB7FB" points="1799 588 1768 646 1799 623"></polygon>
            <polygon id="Path" stroke="#6BB8FC" fill="#6BB8FC" points="1799 588 1693 619 1768 646"></polygon>
            <polygon id="Path" stroke="#66AFF1" fill="#66AFF1" points="1799 825 1798 791 1734 824"></polygon>
            <polygon id="Path" stroke="#5DA0DB" fill="#5DA0DB" points="1799 825 1799 623 1798 791"></polygon>
            <polygon id="Path" stroke="#6FC0FF" fill="#6FC0FF" points="1799 559 1693 619 1799 588"></polygon>
            <polygon id="Path" stroke="#6CBBFF" fill="#6CBBFF" points="1799 559 1740 499 1693 619"></polygon>
            <polygon id="Path" stroke="#6AB6FA" fill="#6AB6FA" points="1799 934 1668 926 1754 1016"></polygon>
            <polygon id="Path" stroke="#69B5F8" fill="#69B5F8" points="1799 934 1799 825 1734 824"></polygon>
            <polygon id="Path" stroke="#6DBBFF" fill="#6DBBFF" points="1799 934 1734 824 1668 926"></polygon>
            <polygon id="Path" stroke="#68B3F6" fill="#68B3F6" points="1799 934 1754 1016 1799 1041"></polygon>
            <polygon id="Path" stroke="#71C3FF" fill="#71C3FF" points="1799 89 1774 83 1786 323"></polygon>
            <polygon id="Path" stroke="#6EBEFF" fill="#6EBEFF" points="1799 1101 1799 1041 1754 1016"></polygon>
            <polygon id="Path" stroke="#6AB7FA" fill="#6AB7FA" points="1799 1101 1754 1016 1662 1101"></polygon>
            <polygon id="Path" stroke="#68B3F5" fill="#68B3F5" points="1799 551 1740 499 1799 559"></polygon>
            <polygon id="Path" stroke="#68B3F5" fill="#68B3F5" points="1799 551 1786 323 1740 499"></polygon>
            <polygon id="Path" stroke="#6DBCFF" fill="#6DBCFF" points="1799 551 1799 89 1786 323"></polygon>
            <polygon id="Path" stroke="#64ADED" fill="#64ADED" points="1799 0 1774 83 1799 89"></polygon>
            <polygon id="Path" stroke="#6BB9FE" fill="#6BB9FE" points="1799 0 1768 0 1774 83"></polygon>
            <polygon id="Path" stroke="#74C8FF" fill="#74C8FF" points="1437 1101 1316 1074 1180 1077"></polygon>
            <polygon id="Path" stroke="#6CBAFF" fill="#6CBAFF" points="1740 499 1700 338 1633 411"></polygon>
            <polygon id="Path" stroke="#6EBFFF" fill="#6EBFFF" points="1768 0 1726 14 1763 79"></polygon>
            <polygon id="Path" stroke="#6BB8FC" fill="#6BB8FC" points="1768 646 1693 619 1637 754"></polygon>
            <polygon id="Path" stroke="#6AB6FA" fill="#6AB6FA" points="1754 1016 1651 1053 1662 1101"></polygon>
            <polygon id="Path" stroke="#6BB8FC" fill="#6BB8FC" points="1754 1016 1668 926 1662 1005"></polygon>
            <polygon id="Path" stroke="#71C3FF" fill="#71C3FF" points="1355 0 899 0 1044 36"></polygon>
            <polygon id="Path" stroke="#6CBAFF" fill="#6CBAFF" points="1763 79 1726 14 1641 94"></polygon>
            <polygon id="Path" stroke="#6EBDFF" fill="#6EBDFF" points="1754 1016 1662 1005 1651 1053"></polygon>
            <polygon id="Path" stroke="#6EBEFF" fill="#6EBEFF" points="1641 94 1536 182 1631 301"></polygon>
            <polygon id="Path" stroke="#6BB9FE" fill="#6BB9FE" points="1726 14 1489 0 1590 83"></polygon>
            <polygon id="Path" stroke="#69B6F9" fill="#69B6F9" points="1734 824 1700 808 1668 926"></polygon>
            <polygon id="Path" stroke="#6CBBFF" fill="#6CBBFF" points="1740 499 1596 543 1693 619"></polygon>
            <polygon id="Path" stroke="#6EBEFF" fill="#6EBEFF" points="1740 499 1633 411 1596 543"></polygon>
            <polygon id="Path" stroke="#6CBBFF" fill="#6CBBFF" points="1726 14 1590 83 1641 94"></polygon>
            <polygon id="Path" stroke="#6CBBFF" fill="#6CBBFF" points="1668 926 1628 980 1662 1005"></polygon>
            <polygon id="Path" stroke="#6EBEFF" fill="#6EBEFF" points="1693 619 1596 543 1597 613"></polygon>
            <polygon id="Path" stroke="#6BB9FE" fill="#6BB9FE" points="1693 619 1597 613 1637 754"></polygon>
            <polygon id="Path" stroke="#6FC0FF" fill="#6FC0FF" points="1700 338 1631 301 1633 411"></polygon>
            <polygon id="Path" stroke="#6BB9FD" fill="#6BB9FD" points="1700 808 1564 875 1668 926"></polygon>
            <polygon id="Path" stroke="#6CBBFF" fill="#6CBBFF" points="1700 808 1637 754 1564 875"></polygon>
            <polygon id="Path" stroke="#6FBFFF" fill="#6FBFFF" points="1637 754 1597 613 1544 704"></polygon>
            <polygon id="Path" stroke="#6EBDFF" fill="#6EBDFF" points="1637 754 1547 782 1564 875"></polygon>
            <polygon id="Path" stroke="#6FBFFF" fill="#6FBFFF" points="1641 94 1590 83 1536 182"></polygon>
            <polygon id="Path" stroke="#6EBDFF" fill="#6EBDFF" points="1668 926 1547 911 1617 979"></polygon>
            <polygon id="Path" stroke="#6BB9FE" fill="#6BB9FE" points="1668 926 1564 875 1547 911"></polygon>
            <polygon id="Path" stroke="#6DBDFF" fill="#6DBDFF" points="1668 926 1617 979 1628 980"></polygon>
            <polygon id="Path" stroke="#70C1FF" fill="#70C1FF" points="1633 411 1517 491 1596 543"></polygon>
            <polygon id="Path" stroke="#6CBAFE" fill="#6CBAFE" points="1651 1053 1628 980 1617 979"></polygon>
            <polygon id="Path" stroke="#6BB8FC" fill="#6BB8FC" points="1662 1005 1628 980 1651 1053"></polygon>
            <polygon id="Path" stroke="#68B3F6" fill="#68B3F6" points="1662 1101 1651 1053 1597 1101"></polygon>
            <polygon id="Path" stroke="#6CBBFF" fill="#6CBBFF" points="1651 1053 1617 979 1597 1101"></polygon>
            <polygon id="Path" stroke="#70C1FF" fill="#70C1FF" points="1597 613 1550 625 1544 704"></polygon>
            <polygon id="Path" stroke="#70C1FF" fill="#70C1FF" points="1633 411 1631 301 1397 358"></polygon>
            <polygon id="Path" stroke="#6BB9FD" fill="#6BB9FD" points="1590 83 1489 0 1499 52"></polygon>
            <polygon id="Path" stroke="#72C4FF" fill="#72C4FF" points="1631 301 1469 229 1397 358"></polygon>
            <polygon id="Path" stroke="#70C2FF" fill="#70C2FF" points="1631 301 1536 182 1469 229"></polygon>
            <polygon id="Path" stroke="#71C3FF" fill="#71C3FF" points="1633 411 1397 358 1517 491"></polygon>
            <polygon id="Path" stroke="#6CBBFF" fill="#6CBBFF" points="1637 754 1544 704 1547 782"></polygon>
            <polygon id="Path" stroke="#6CBAFF" fill="#6CBAFF" points="1617 979 1437 1101 1597 1101"></polygon>
            <polygon id="Path" stroke="#6DBCFF" fill="#6DBCFF" points="1617 979 1547 911 1437 1101"></polygon>
            <polygon id="Path" stroke="#70C2FF" fill="#70C2FF" points="1547 911 1393 987 1437 1101"></polygon>
            <polygon id="Path" stroke="#71C2FF" fill="#71C2FF" points="1596 543 1490 560 1536 615"></polygon>
            <polygon id="Path" stroke="#70C2FF" fill="#70C2FF" points="1597 613 1596 543 1536 615"></polygon>
            <polygon id="Path" stroke="#70C2FF" fill="#70C2FF" points="1597 613 1536 615 1550 625"></polygon>
            <polygon id="Path" stroke="#6FBFFF" fill="#6FBFFF" points="1590 83 1499 52 1536 182"></polygon>
            <polygon id="Path" stroke="#73C7FF" fill="#73C7FF" points="1596 543 1517 491 1490 560"></polygon>
            <polygon id="Path" stroke="#6FC0FF" fill="#6FC0FF" points="1564 875 1547 782 1532 876"></polygon>
            <polygon id="Path" stroke="#71C4FF" fill="#71C4FF" points="1536 182 1499 52 1458 142"></polygon>
            <polygon id="Path" stroke="#6EBEFF" fill="#6EBEFF" points="1547 782 1544 704 1476 738"></polygon>
            <polygon id="Path" stroke="#73C7FF" fill="#73C7FF" points="1550 625 1471 659 1544 704"></polygon>
            <polygon id="Path" stroke="#6FC0FF" fill="#6FC0FF" points="1564 875 1532 876 1547 911"></polygon>
            <polygon id="Path" stroke="#70C2FF" fill="#70C2FF" points="1547 782 1476 738 1532 876"></polygon>
            <polygon id="Path" stroke="#71C2FF" fill="#71C2FF" points="1550 625 1536 615 1471 659"></polygon>
            <polygon id="Path" stroke="#71C3FF" fill="#71C3FF" points="1547 911 1532 876 1393 987"></polygon>
            <polygon id="Path" stroke="#72C4FF" fill="#72C4FF" points="1544 704 1471 659 1476 738"></polygon>
            <polygon id="Path" stroke="#71C3FF" fill="#71C3FF" points="1532 876 1476 738 1332 768"></polygon>
            <polygon id="Path" stroke="#70C2FF" fill="#70C2FF" points="1536 615 1490 560 1471 659"></polygon>
            <polygon id="Path" stroke="#73C6FF" fill="#73C6FF" points="1536 182 1458 142 1469 229"></polygon>
            <polygon id="Path" stroke="#70C2FF" fill="#70C2FF" points="1532 876 1332 768 1393 987"></polygon>
            <polygon id="Path" stroke="#71C4FF" fill="#71C4FF" points="1499 52 1445 135 1458 142"></polygon>
            <polygon id="Path" stroke="#74C8FF" fill="#74C8FF" points="1517 491 1301 426 1490 560"></polygon>
            <polygon id="Path" stroke="#76CCFF" fill="#76CCFF" points="1517 491 1397 358 1301 426"></polygon>
            <polygon id="Path" stroke="#73C7FF" fill="#73C7FF" points="1469 229 1364 309 1397 358"></polygon>
            <polygon id="Path" stroke="#76CCFF" fill="#76CCFF" points="1490 560 1301 426 1397 612"></polygon>
            <polygon id="Path" stroke="#73C7FF" fill="#73C7FF" points="1490 560 1397 612 1471 659"></polygon>
            <polygon id="Path" stroke="#70C2FF" fill="#70C2FF" points="1499 52 1407 125 1445 135"></polygon>
            <polygon id="Path" stroke="#6FBFFF" fill="#6FBFFF" points="1499 52 1489 0 1355 0"></polygon>
            <polygon id="Path" stroke="#6FC0FF" fill="#6FC0FF" points="1499 52 1355 0 1407 125"></polygon>
            <polygon id="Path" stroke="#75CBFF" fill="#75CBFF" points="1397 612 1301 426 1352 610"></polygon>
            <polygon id="Path" stroke="#73C7FF" fill="#73C7FF" points="1393 987 1332 768 1266 827"></polygon>
            <polygon id="Path" stroke="#73C7FF" fill="#73C7FF" points="1458 142 1445 135 1372 223"></polygon>
            <polygon id="Path" stroke="#74C9FF" fill="#74C9FF" points="1469 229 1372 223 1364 309"></polygon>
            <polygon id="Path" stroke="#71C4FF" fill="#71C4FF" points="1469 229 1458 142 1372 223"></polygon>
            <polygon id="Path" stroke="#77CDFF" fill="#77CDFF" points="1471 659 1397 612 1332 768"></polygon>
            <polygon id="Path" stroke="#75CAFF" fill="#75CAFF" points="1476 738 1471 659 1332 768"></polygon>
            <polygon id="Path" stroke="#71C3FF" fill="#71C3FF" points="1445 135 1407 125 1372 223"></polygon>
            <polygon id="Path" stroke="#74C8FF" fill="#74C8FF" points="1397 612 1352 610 1332 768"></polygon>
            <polygon id="Path" stroke="#70C1FF" fill="#70C1FF" points="1437 1101 1393 987 1316 1074"></polygon>
            <polygon id="Path" stroke="#70C2FF" fill="#70C2FF" points="1407 125 1355 0 1322 104"></polygon>
            <polygon id="Path" stroke="#7BD5FF" fill="#7BD5FF" points="1352 610 1301 426 1280 591"></polygon>
            <polygon id="Path" stroke="#77CDFF" fill="#77CDFF" points="1352 610 1274 637 1332 768"></polygon>
            <polygon id="Path" stroke="#71C3FF" fill="#71C3FF" points="1407 125 1308 136 1372 223"></polygon>
            <polygon id="Path" stroke="#70C2FF" fill="#70C2FF" points="1407 125 1322 104 1308 136"></polygon>
            <polygon id="Path" stroke="#74C9FF" fill="#74C9FF" points="1393 987 1266 827 1179 928"></polygon>
            <polygon id="Path" stroke="#77CEFF" fill="#77CEFF" points="1397 358 1303 329 1301 426"></polygon>
            <polygon id="Path" stroke="#73C7FF" fill="#73C7FF" points="1397 358 1364 309 1303 329"></polygon>
            <polygon id="Path" stroke="#71C3FF" fill="#71C3FF" points="1393 987 1179 928 1316 1074"></polygon>
            <polygon id="Path" stroke="#76CBFF" fill="#76CBFF" points="1352 610 1287 617 1274 637"></polygon>
            <polygon id="Path" stroke="#73C7FF" fill="#73C7FF" points="1355 0 1044 36 1264 85"></polygon>
            <polygon id="Path" stroke="#72C5FF" fill="#72C5FF" points="1355 0 1264 85 1322 104"></polygon>
            <polygon id="Path" stroke="#73C7FF" fill="#73C7FF" points="1372 223 1293 323 1364 309"></polygon>
            <polygon id="Path" stroke="#76CBFF" fill="#76CBFF" points="1372 223 1308 136 1293 323"></polygon>
            <polygon id="Path" stroke="#73C7FF" fill="#73C7FF" points="1264 85 1044 36 1048 40"></polygon>
            <polygon id="Path" stroke="#73C6FF" fill="#73C6FF" points="1364 309 1293 323 1303 329"></polygon>
            <polygon id="Path" stroke="#7AD2FF" fill="#7AD2FF" points="1352 610 1280 591 1287 617"></polygon>
            <polygon id="Path" stroke="#79D1FF" fill="#79D1FF" points="1308 136 1117 305 1293 323"></polygon>
            <polygon id="Path" stroke="#72C5FF" fill="#72C5FF" points="1316 1074 1179 928 1180 1077"></polygon>
            <polygon id="Path" stroke="#77CDFF" fill="#77CDFF" points="1332 768 1274 637 1266 827"></polygon>
            <polygon id="Path" stroke="#80DDFF" fill="#80DDFF" points="1301 426 1109 473 1280 591"></polygon>
            <polygon id="Path" stroke="#77CEFF" fill="#77CEFF" points="1303 329 1293 323 1301 426"></polygon>
            <polygon id="Path" stroke="#76CDFF" fill="#76CDFF" points="1308 136 1264 85 1117 305"></polygon>
            <polygon id="Path" stroke="#71C3FF" fill="#71C3FF" points="1322 104 1264 85 1308 136"></polygon>
            <polygon id="Path" stroke="#7DD9FF" fill="#7DD9FF" points="1301 426 1293 323 1117 305"></polygon>
            <polygon id="Path" stroke="#79D1FF" fill="#79D1FF" points="1274 637 1103 869 1266 827"></polygon>
            <polygon id="Path" stroke="#82E0FF" fill="#82E0FF" points="1301 426 1117 305 1109 473"></polygon>
            <polygon id="Path" stroke="#7BD4FF" fill="#7BD4FF" points="1264 85 1027 133 1117 305"></polygon>
            <polygon id="Path" stroke="#82E1FF" fill="#82E1FF" points="1274 637 997 625 1103 869"></polygon>
            <polygon id="Path" stroke="#75CBFF" fill="#75CBFF" points="1287 617 1280 591 1274 637"></polygon>
            <polygon id="Path" stroke="#80DDFF" fill="#80DDFF" points="1280 591 1109 473 1274 637"></polygon>
            <polygon id="Path" stroke="#88ECFF" fill="#88ECFF" points="1274 637 1109 473 997 625"></polygon>
            <polygon id="Path" stroke="#76CDFF" fill="#76CDFF" points="1264 85 1048 40 1027 133"></polygon>
            <polygon id="Path" stroke="#79D1FF" fill="#79D1FF" points="1266 827 1103 869 1179 928"></polygon>
            <polygon id="Path" stroke="#72C5FF" fill="#72C5FF" points="605 0 114 0 230 25"></polygon>
            <polygon id="Path" stroke="#81E0FF" fill="#81E0FF" points="1103 869 997 625 1051 856"></polygon>
            <polygon id="Path" stroke="#81E0FF" fill="#81E0FF" points="1117 305 1027 133 989 220"></polygon>
            <polygon id="Path" stroke="#73C6FF" fill="#73C6FF" points="1180 1077 1179 928 1103 998"></polygon>
            <polygon id="Path" stroke="#74C8FF" fill="#74C8FF" points="1180 1077 1103 998 1019 1077"></polygon>
            <polygon id="Path" stroke="#75CBFF" fill="#75CBFF" points="1179 928 1103 869 1103 998"></polygon>
            <polygon id="Path" stroke="#85E6FF" fill="#85E6FF" points="1051 856 997 625 946 821"></polygon>
            <polygon id="Path" stroke="#78CFFF" fill="#78CFFF" points="1103 869 1051 856 1103 998"></polygon>
            <polygon id="Path" stroke="#93FFFF" fill="#93FFFF" points="1109 473 978 604 997 625"></polygon>
            <polygon id="Path" stroke="#90FAFF" fill="#90FAFF" points="1117 305 899 406 1109 473"></polygon>
            <polygon id="Path" stroke="#8CF3FF" fill="#8CF3FF" points="1117 305 989 220 899 406"></polygon>
            <polygon id="Path" stroke="#79D1FF" fill="#79D1FF" points="1103 998 1051 856 932 997"></polygon>
            <polygon id="Path" stroke="#9CFFFF" fill="#9CFFFF" points="1109 473 933 569 978 604"></polygon>
            <polygon id="Path" stroke="#A0FFFF" fill="#A0FFFF" points="1109 473 899 406 933 569"></polygon>
            <polygon id="Path" stroke="#74C9FF" fill="#74C9FF" points="1103 998 932 997 1019 1077"></polygon>
            <polygon id="Path" stroke="#8DF5FF" fill="#8DF5FF" points="989 220 865 274 899 406"></polygon>
            <polygon id="Path" stroke="#79D2FF" fill="#79D2FF" points="1044 36 899 0 971 57"></polygon>
            <polygon id="Path" stroke="#78CFFF" fill="#78CFFF" points="1048 40 1044 36 971 57"></polygon>
            <polygon id="Path" stroke="#78CFFF" fill="#78CFFF" points="1048 40 971 57 1027 133"></polygon>
            <polygon id="Path" stroke="#7BD4FF" fill="#7BD4FF" points="1051 856 946 821 891 937"></polygon>
            <polygon id="Path" stroke="#79D1FF" fill="#79D1FF" points="1051 856 891 937 932 997"></polygon>
            <polygon id="Path" stroke="#8BF1FF" fill="#8BF1FF" points="946 821 834 618 795 726"></polygon>
            <polygon id="Path" stroke="#90FAFF" fill="#90FAFF" points="997 625 834 618 946 821"></polygon>
            <polygon id="Path" stroke="#80DDFF" fill="#80DDFF" points="1027 133 872 140 989 220"></polygon>
            <polygon id="Path" stroke="#79D2FF" fill="#79D2FF" points="1027 133 971 57 872 140"></polygon>
            <polygon id="Path" stroke="#74C8FF" fill="#74C8FF" points="1019 1077 932 997 899 1101"></polygon>
            <polygon id="Path" stroke="#9FFFFF" fill="#9FFFFF" points="978 604 922 581 834 618"></polygon>
            <polygon id="Path" stroke="#A1FFFF" fill="#A1FFFF" points="997 625 978 604 834 618"></polygon>
            <polygon id="Path" stroke="#83E2FF" fill="#83E2FF" points="989 220 872 140 865 274"></polygon>
            <polygon id="Path" stroke="#7AD3FF" fill="#7AD3FF" points="971 57 850 93 872 140"></polygon>
            <polygon id="Path" stroke="#A1FFFF" fill="#A1FFFF" points="978 604 933 569 922 581"></polygon>
            <polygon id="Path" stroke="#6FC0FF" fill="#6FC0FF" points="605 0 230 25 393 44"></polygon>
            <polygon id="Path" stroke="#79D1FF" fill="#79D1FF" points="971 57 899 0 850 93"></polygon>
            <polygon id="Path" stroke="#95FFFF" fill="#95FFFF" points="899 406 865 274 823 376"></polygon>
            <polygon id="Path" stroke="#A8FFFF" fill="#A8FFFF" points="922 581 899 406 834 618"></polygon>
            <polygon id="Path" stroke="#75CAFF" fill="#75CAFF" points="932 997 851 1059 899 1101"></polygon>
            <polygon id="Path" stroke="#A8FFFF" fill="#A8FFFF" points="933 569 899 406 922 581"></polygon>
            <polygon id="Path" stroke="#7EDAFF" fill="#7EDAFF" points="946 821 817 892 891 937"></polygon>
            <polygon id="Path" stroke="#81E0FF" fill="#81E0FF" points="946 821 795 726 817 892"></polygon>
            <polygon id="Path" stroke="#9FFFFF" fill="#9FFFFF" points="834 618 775 394 775 612"></polygon>
            <polygon id="Path" stroke="#A4FFFF" fill="#A4FFFF" points="899 406 775 394 834 618"></polygon>
            <polygon id="Path" stroke="#76CCFF" fill="#76CCFF" points="932 997 891 937 851 1059"></polygon>
            <polygon id="Path" stroke="#99FFFF" fill="#99FFFF" points="899 406 823 376 775 394"></polygon>
            <polygon id="Path" stroke="#76CCFF" fill="#76CCFF" points="899 1101 851 1059 683 1101"></polygon>
            <polygon id="Path" stroke="#77CDFF" fill="#77CDFF" points="899 0 854 0 850 93"></polygon>
            <polygon id="Path" stroke="#90FAFF" fill="#90FAFF" points="865 274 801 314 823 376"></polygon>
            <polygon id="Path" stroke="#7FDCFF" fill="#7FDCFF" points="872 140 831 120 865 274"></polygon>
            <polygon id="Path" stroke="#75CAFF" fill="#75CAFF" points="891 937 789 973 851 1059"></polygon>
            <polygon id="Path" stroke="#83E2FF" fill="#83E2FF" points="865 274 831 120 723 241"></polygon>
            <polygon id="Path" stroke="#7CD6FF" fill="#7CD6FF" points="891 937 817 892 789 973"></polygon>
            <polygon id="Path" stroke="#89EEFF" fill="#89EEFF" points="865 274 723 241 801 314"></polygon>
            <polygon id="Path" stroke="#77CEFF" fill="#77CEFF" points="872 140 850 93 831 120"></polygon>
            <polygon id="Path" stroke="#74C9FF" fill="#74C9FF" points="854 0 744 0 850 93"></polygon>
            <polygon id="Path" stroke="#92FDFF" fill="#92FDFF" points="834 618 775 612 795 726"></polygon>
            <polygon id="Path" stroke="#76CCFF" fill="#76CCFF" points="850 93 744 0 831 120"></polygon>
            <polygon id="Path" stroke="#73C7FF" fill="#73C7FF" points="851 1059 708 1024 683 1101"></polygon>
            <polygon id="Path" stroke="#93FFFF" fill="#93FFFF" points="775 612 775 394 657 416"></polygon>
            <polygon id="Path" stroke="#76CBFF" fill="#76CBFF" points="851 1059 789 973 708 1024"></polygon>
            <polygon id="Path" stroke="#7FDCFF" fill="#7FDCFF" points="817 892 795 726 593 825"></polygon>
            <polygon id="Path" stroke="#80DEFF" fill="#80DEFF" points="831 120 659 181 723 241"></polygon>
            <polygon id="Path" stroke="#78CFFF" fill="#78CFFF" points="831 120 744 0 659 181"></polygon>
            <polygon id="Path" stroke="#8FF8FF" fill="#8FF8FF" points="775 612 657 416 712 633"></polygon>
            <polygon id="Path" stroke="#91FBFF" fill="#91FBFF" points="795 726 775 612 712 633"></polygon>
            <polygon id="Path" stroke="#90FAFF" fill="#90FAFF" points="823 376 801 314 775 394"></polygon>
            <polygon id="Path" stroke="#77CDFF" fill="#77CDFF" points="744 0 616 112 659 181"></polygon>
            <polygon id="Path" stroke="#7BD4FF" fill="#7BD4FF" points="817 892 602 928 789 973"></polygon>
            <polygon id="Path" stroke="#7AD2FF" fill="#7AD2FF" points="817 892 593 825 602 928"></polygon>
            <polygon id="Path" stroke="#75CBFF" fill="#75CBFF" points="789 973 602 928 708 1024"></polygon>
            <polygon id="Path" stroke="#80DEFF" fill="#80DEFF" points="795 726 636 685 593 825"></polygon>
            <polygon id="Path" stroke="#8DF5FF" fill="#8DF5FF" points="801 314 700 339 775 394"></polygon>
            <polygon id="Path" stroke="#86E8FF" fill="#86E8FF" points="801 314 723 241 700 339"></polygon>
            <polygon id="Path" stroke="#88EBFF" fill="#88EBFF" points="795 726 712 633 636 685"></polygon>
            <polygon id="Path" stroke="#8DF4FF" fill="#8DF4FF" points="775 394 700 339 657 416"></polygon>
            <polygon id="Path" stroke="#6BB8FD" fill="#6BB8FD" points="614 1101 551 1070 297 1101"></polygon>
            <polygon id="Path" stroke="#87EAFF" fill="#87EAFF" points="712 633 657 416 519 459"></polygon>
            <polygon id="Path" stroke="#84E4FF" fill="#84E4FF" points="723 241 639 301 700 339"></polygon>
            <polygon id="Path" stroke="#73C7FF" fill="#73C7FF" points="744 0 605 0 616 112"></polygon>
            <polygon id="Path" stroke="#7FDDFF" fill="#7FDDFF" points="636 685 519 459 466 558"></polygon>
            <polygon id="Path" stroke="#84E5FF" fill="#84E5FF" points="712 633 519 459 636 685"></polygon>
            <polygon id="Path" stroke="#81DFFF" fill="#81DFFF" points="723 241 659 181 639 301"></polygon>
            <polygon id="Path" stroke="#71C3FF" fill="#71C3FF" points="708 1024 647 1101 683 1101"></polygon>
            <polygon id="Path" stroke="#71C3FF" fill="#71C3FF" points="708 1024 614 1101 647 1101"></polygon>
            <polygon id="Path" stroke="#72C6FF" fill="#72C6FF" points="708 1024 602 928 614 1101"></polygon>
            <polygon id="Path" stroke="#70C1FF" fill="#70C1FF" points="614 1101 602 928 551 1070"></polygon>
            <polygon id="Path" stroke="#87EAFF" fill="#87EAFF" points="700 339 639 301 657 416"></polygon>
            <polygon id="Path" stroke="#75C9FF" fill="#75C9FF" points="616 112 605 0 583 24"></polygon>
            <polygon id="Path" stroke="#83E3FF" fill="#83E3FF" points="657 416 639 301 567 391"></polygon>
            <polygon id="Path" stroke="#7AD2FF" fill="#7AD2FF" points="636 685 530 773 593 825"></polygon>
            <polygon id="Path" stroke="#7BD4FF" fill="#7BD4FF" points="636 685 525 743 530 773"></polygon>
            <polygon id="Path" stroke="#81DFFF" fill="#81DFFF" points="657 416 567 391 519 459"></polygon>
            <polygon id="Path" stroke="#77CEFF" fill="#77CEFF" points="659 181 616 112 462 150"></polygon>
            <polygon id="Path" stroke="#77CEFF" fill="#77CEFF" points="659 181 462 150 489 301"></polygon>
            <polygon id="Path" stroke="#7AD3FF" fill="#7AD3FF" points="659 181 489 301 639 301"></polygon>
            <polygon id="Path" stroke="#7CD6FF" fill="#7CD6FF" points="636 685 466 558 525 743"></polygon>
            <polygon id="Path" stroke="#72C4FF" fill="#72C4FF" points="602 928 499 957 551 1070"></polygon>
            <polygon id="Path" stroke="#75CBFF" fill="#75CBFF" points="605 0 393 44 583 24"></polygon>
            <polygon id="Path" stroke="#7CD6FF" fill="#7CD6FF" points="639 301 489 301 567 391"></polygon>
            <polygon id="Path" stroke="#76CCFF" fill="#76CCFF" points="602 928 593 825 499 957"></polygon>
            <polygon id="Path" stroke="#72C6FF" fill="#72C6FF" points="616 112 583 24 462 150"></polygon>
            <polygon id="Path" stroke="#7DD8FF" fill="#7DD8FF" points="567 391 509 432 519 459"></polygon>
            <polygon id="Path" stroke="#76CCFF" fill="#76CCFF" points="593 825 530 773 499 957"></polygon>
            <polygon id="Path" stroke="#73C7FF" fill="#73C7FF" points="583 24 393 44 462 150"></polygon>
            <polygon id="Path" stroke="#73C6FF" fill="#73C6FF" points="530 773 366 834 499 957"></polygon>
            <polygon id="Path" stroke="#7CD7FF" fill="#7CD7FF" points="567 391 489 301 509 432"></polygon>
            <polygon id="Path" stroke="#79D1FF" fill="#79D1FF" points="525 743 466 558 397 763"></polygon>
            <polygon id="Path" stroke="#74C8FF" fill="#74C8FF" points="530 773 397 763 366 834"></polygon>
            <polygon id="Path" stroke="#6EBDFF" fill="#6EBDFF" points="551 1070 499 957 297 1101"></polygon>
            <polygon id="Path" stroke="#6FC0FF" fill="#6FC0FF" points="393 44 230 25 304 51"></polygon>
            <polygon id="Path" stroke="#75CAFF" fill="#75CAFF" points="466 558 325 681 397 763"></polygon>
            <polygon id="Path" stroke="#75CAFF" fill="#75CAFF" points="489 301 462 150 396 185"></polygon>
            <polygon id="Path" stroke="#6FBFFF" fill="#6FBFFF" points="499 957 342 938 297 1101"></polygon>
            <polygon id="Path" stroke="#72C5FF" fill="#72C5FF" points="499 957 366 834 366 914"></polygon>
            <polygon id="Path" stroke="#74C9FF" fill="#74C9FF" points="530 773 525 743 397 763"></polygon>
            <polygon id="Path" stroke="#78CFFF" fill="#78CFFF" points="509 432 489 301 364 429"></polygon>
            <polygon id="Path" stroke="#79D0FF" fill="#79D0FF" points="519 459 509 432 364 429"></polygon>
            <polygon id="Path" stroke="#78CFFF" fill="#78CFFF" points="519 459 364 429 466 558"></polygon>
            <polygon id="Path" stroke="#75CAFF" fill="#75CAFF" points="489 301 396 185 369 225"></polygon>
            <polygon id="Path" stroke="#75CAFF" fill="#75CAFF" points="489 301 344 337 364 429"></polygon>
            <polygon id="Path" stroke="#73C7FF" fill="#73C7FF" points="499 957 366 914 342 938"></polygon>
            <polygon id="Path" stroke="#75CAFF" fill="#75CAFF" points="489 301 369 225 344 337"></polygon>
            <polygon id="Path" stroke="#71C3FF" fill="#71C3FF" points="462 150 393 44 396 185"></polygon>
            <polygon id="Path" stroke="#76CBFF" fill="#76CBFF" points="466 558 364 429 262 480"></polygon>
            <polygon id="Path" stroke="#75CAFF" fill="#75CAFF" points="466 558 262 480 325 681"></polygon>
            <polygon id="Path" stroke="#6FC0FF" fill="#6FC0FF" points="369 225 322 90 247 168"></polygon>
            <polygon id="Path" stroke="#71C4FF" fill="#71C4FF" points="396 185 393 44 322 90"></polygon>
            <polygon id="Path" stroke="#71C4FF" fill="#71C4FF" points="396 185 322 90 369 225"></polygon>
            <polygon id="Path" stroke="#71C3FF" fill="#71C3FF" points="397 763 325 681 366 834"></polygon>
            <polygon id="Path" stroke="#70C1FF" fill="#70C1FF" points="393 44 304 51 322 90"></polygon>
            <polygon id="Path" stroke="#6CBBFF" fill="#6CBBFF" points="227 1096 193 1083 0 1101"></polygon>
            <polygon id="Path" stroke="#72C5FF" fill="#72C5FF" points="325 681 262 480 181 581"></polygon>
            <polygon id="Path" stroke="#70C2FF" fill="#70C2FF" points="364 429 344 337 262 480"></polygon>
            <polygon id="Path" stroke="#72C5FF" fill="#72C5FF" points="366 834 342 938 366 914"></polygon>
            <polygon id="Path" stroke="#70C1FF" fill="#70C1FF" points="366 834 325 681 111 888"></polygon>
            <polygon id="Path" stroke="#71C3FF" fill="#71C3FF" points="369 225 247 168 344 337"></polygon>
            <polygon id="Path" stroke="#6DBCFF" fill="#6DBCFF" points="342 938 227 1096 297 1101"></polygon>
            <polygon id="Path" stroke="#70C1FF" fill="#70C1FF" points="366 834 111 888 342 938"></polygon>
            <polygon id="Path" stroke="#6CBBFF" fill="#6CBBFF" points="342 938 123 1031 193 1083"></polygon>
            <polygon id="Path" stroke="#6DBCFF" fill="#6DBCFF" points="342 938 193 1083 227 1096"></polygon>
            <polygon id="Path" stroke="#70C1FF" fill="#70C1FF" points="344 337 33 425 262 480"></polygon>
            <polygon id="Path" stroke="#6EBEFF" fill="#6EBEFF" points="344 337 247 168 33 425"></polygon>
            <polygon id="Path" stroke="#6CBBFF" fill="#6CBBFF" points="342 938 111 888 123 1031"></polygon>
            <polygon id="Path" stroke="#6CBAFF" fill="#6CBAFF" points="247 168 0 364 33 425"></polygon>
            <polygon id="Path" stroke="#70C1FF" fill="#70C1FF" points="325 681 181 581 111 888"></polygon>
            <polygon id="Path" stroke="#6FBFFF" fill="#6FBFFF" points="322 90 304 51 247 168"></polygon>
            <polygon id="Path" stroke="#6DBBFF" fill="#6DBBFF" points="181 581 32 645 111 888"></polygon>
            <polygon id="Path" stroke="#6CBBFF" fill="#6CBBFF" points="247 168 5 224 0 364"></polygon>
            <polygon id="Path" stroke="#6EBFFF" fill="#6EBFFF" points="304 51 230 25 247 168"></polygon>
            <polygon id="Path" stroke="#71C3FF" fill="#71C3FF" points="111 888 32 645 0 696"></polygon>
            <polygon id="Path" stroke="#6CBAFF" fill="#6CBAFF" points="247 168 230 25 114 0"></polygon>
            <polygon id="Path" stroke="#6EBDFF" fill="#6EBDFF" points="262 480 33 425 181 581"></polygon>
            <polygon id="Path" stroke="#6CBAFF" fill="#6CBAFF" points="247 168 114 0 5 224"></polygon>
            <polygon id="Path" stroke="#6BB8FC" fill="#6BB8FC" points="181 581 33 425 13 481"></polygon>
            <polygon id="Path" stroke="#6AB8FC" fill="#6AB8FC" points="111 888 0 696 0 845"></polygon>
            <polygon id="Path" stroke="#6CBBFF" fill="#70C1FF" points="123 1031 111 888 58 937"></polygon>
            <polygon id="Path" stroke="#6DBCFF" fill="#6DBCFF" points="181 581 13 481 0 548"></polygon>
            <polygon id="Path" stroke="#69B5F8" fill="#69B5F8" points="193 1083 113 1040 0 1101"></polygon>
            <polygon id="Path" stroke="#6CBAFF" fill="#6CBAFF" points="193 1083 123 1031 113 1040"></polygon>
            <polygon id="Path" stroke="#69B6F9" fill="#69B6F9" points="114 0 0 0 5 224"></polygon>
            <polygon id="Path" stroke="#6EBDFF" fill="#6EBDFF" points="181 581 0 548 0 551"></polygon>
            <polygon id="Path" stroke="#6CBBFF" fill="#6CBBFF" points="181 581 0 567 32 645"></polygon>
            <polygon id="Path" stroke="#6CBAFF" fill="#6CBAFF" points="181 581 0 551 0 567"></polygon>
            <polygon id="Path" stroke="#6BB9FE" fill="#6BB9FE" points="111 888 0 845 63 907"></polygon>
            <polygon id="Path" stroke="#6CBBFF" fill="#6CBBFF" points="111 888 63 907 58 937"></polygon>
            <polygon id="Path" stroke="#6DBCFF" fill="#6DBCFF" points="123 1031 58 937 113 1040"></polygon>
            <polygon id="Path" stroke="#6BB8FD" fill="#6BB8FD" points="113 1040 58 937 0 1101"></polygon>
            <polygon id="Path" stroke="#69B5F8" fill="#69B5F8" points="58 937 0 880 0 1101"></polygon>
            <polygon id="Path" stroke="#6DBDFF" fill="#6DBDFF" points="63 907 0 845 0 875"></polygon>
            <polygon id="Path" stroke="#6BB9FE" fill="#6BB9FE" points="63 907 0 880 58 937"></polygon>
            <polygon id="Path" stroke="#6DBDFF" fill="#6DBDFF" points="63 907 0 875 0 880"></polygon>
            <polygon id="Path" stroke="#6CBBFF" fill="#6CBBFF" points="33 425 0 364 13 481"></polygon>
            <polygon id="Path" stroke="#71C2FF" fill="#71C2FF" points="32 645 0 567 0 696"></polygon>
            <polygon id="Path" stroke="#5DA0DB" fill="#5DA0DB" points="13 481 0 364 0 548"></polygon>
            <polygon id="Path" stroke="#68B4F6" fill="#68B4F6" points="5 224 0 0 0 364"></polygon>
        </g>
    </g>
</svg>