<?xml version="1.0" encoding="UTF-8"?>
<svg width="1951px" height="780px" viewBox="0 0 1951 780" version="1.1" xmlns="http://www.w3.org/2000/svg" xmlns:xlink="http://www.w3.org/1999/xlink">
    <title>bg-night</title>
    <g id="Page-1" stroke="none" stroke-width="1" fill="none" fill-rule="evenodd" stroke-linejoin="round">
        <g id="bg-night" transform="translate(1.000000, 0.000000)" fill-rule="nonzero">
            <polygon id="Path" stroke="#15405E" fill="#15405E" points="829 779.5 395 747.5 191 761.5"></polygon>
            <polygon id="Path" stroke="#174261" fill="#174261" points="829 779.5 191 761.5 0 779.5"></polygon>
            <polygon id="Path" stroke="#092F49" fill="#092F49" points="1696 0.5 1483 0.5 1524 3.5"></polygon>
            <polygon id="Path" stroke="#082D47" fill="#082D47" points="1831 779.5 1757 775.5 1624 779.5"></polygon>
            <polygon id="Path" stroke="#082D47" fill="#082D47" points="1949 516.5 1742 358.5 1691 495.5"></polygon>
            <polygon id="Path" stroke="#082D47" fill="#082D47" points="1949 516.5 1691 495.5 1709 546.5"></polygon>
            <polygon id="Path" stroke="#082D47" fill="#082D47" points="1949 516.5 1709 546.5 1763 610.5"></polygon>
            <polygon id="Path" stroke="#082D47" fill="#082D47" points="1949 516.5 1763 610.5 1884 640.5"></polygon>
            <polygon id="Path" stroke="#082C46" fill="#082C46" points="1949 516.5 1884 640.5 1925 642.5"></polygon>
            <polygon id="Path" stroke="#082D47" fill="#082D47" points="1949 291.5 1922 208.5 1902 293.5"></polygon>
            <polygon id="Path" stroke="#082C47" fill="#082C47" points="1949 122.5 1911 128.5 1922 208.5"></polygon>
            <polygon id="Path" stroke="#082C46" fill="#082C46" points="1949 122.5 1922 208.5 1949 291.5"></polygon>
            <polygon id="Path" stroke="#082C46" fill="#082C46" points="1949 731.5 1925 642.5 1884 640.5"></polygon>
            <polygon id="Path" stroke="#082C46" fill="#082C46" points="1949 731.5 1884 640.5 1831 779.5"></polygon>
            <polygon id="Path" stroke="#072C46" fill="#072C46" points="1949 731.5 1949 516.5 1925 642.5"></polygon>
            <polygon id="Path" stroke="#082D47" fill="#082D47" points="1949 42.5 1947 10.5 1790 4.5"></polygon>
            <polygon id="Path" stroke="#082D47" fill="#082D47" points="1949 42.5 1790 4.5 1911 128.5"></polygon>
            <polygon id="Path" stroke="#082C46" fill="#082C46" points="1949 42.5 1911 128.5 1949 122.5"></polygon>
            <polygon id="Path" stroke="#082C46" fill="#082C46" points="1949 13.5 1947 10.5 1949 42.5"></polygon>
            <polygon id="Path" stroke="#082D47" fill="#082D47" points="1949 415.5 1742 358.5 1949 516.5"></polygon>
            <polygon id="Path" stroke="#082D47" fill="#082D47" points="1949 390.5 1742 358.5 1949 415.5"></polygon>
            <polygon id="Path" stroke="#082D47" fill="#082D47" points="1949 390.5 1902 293.5 1742 358.5"></polygon>
            <polygon id="Path" stroke="#082C46" fill="#082C46" points="1949 390.5 1949 291.5 1902 293.5"></polygon>
            <polygon id="Path" stroke="#082D47" fill="#082D47" points="1949 0.5 1696 0.5 1790 4.5"></polygon>
            <polygon id="Path" stroke="#082D47" fill="#082D47" points="1949 0.5 1790 4.5 1947 10.5"></polygon>
            <polygon id="Path" stroke="#082C46" fill="#082C46" points="1949 0.5 1947 10.5 1949 13.5"></polygon>
            <polygon id="Path" stroke="#072C46" fill="#072C46" points="1949 779.5 1949 731.5 1831 779.5"></polygon>
            <polygon id="Path" stroke="#082D47" fill="#082D47" points="1884 640.5 1804 668.5 1831 779.5"></polygon>
            <polygon id="Path" stroke="#082D47" fill="#082D47" points="1902 293.5 1770 295.5 1742 358.5"></polygon>
            <polygon id="Path" stroke="#082D47" fill="#082D47" points="1922 208.5 1911 128.5 1831 191.5"></polygon>
            <polygon id="Path" stroke="#082D47" fill="#082D47" points="1922 208.5 1831 191.5 1902 293.5"></polygon>
            <polygon id="Path" stroke="#082D47" fill="#082D47" points="1911 128.5 1790 4.5 1831 191.5"></polygon>
            <polygon id="Path" stroke="#082D47" fill="#082D47" points="1902 293.5 1831 191.5 1772 259.5"></polygon>
            <polygon id="Path" stroke="#082D47" fill="#082D47" points="1902 293.5 1772 259.5 1770 295.5"></polygon>
            <polygon id="Path" stroke="#082D47" fill="#082D47" points="1884 640.5 1763 610.5 1804 668.5"></polygon>
            <polygon id="Path" stroke="#092E48" fill="#092E48" points="1790 4.5 1645 159.5 1748 216.5"></polygon>
            <polygon id="Path" stroke="#092E48" fill="#092E48" points="1790 4.5 1696 0.5 1645 159.5"></polygon>
            <polygon id="Path" stroke="#082D48" fill="#082D48" points="1831 191.5 1790 4.5 1748 216.5"></polygon>
            <polygon id="Path" stroke="#082D48" fill="#082D48" points="1831 191.5 1748 216.5 1772 259.5"></polygon>
            <polygon id="Path" stroke="#082D47" fill="#082D47" points="1831 779.5 1804 668.5 1771 702.5"></polygon>
            <polygon id="Path" stroke="#082D47" fill="#082D47" points="1831 779.5 1771 702.5 1757 775.5"></polygon>
            <polygon id="Path" stroke="#092E48" fill="#092E48" points="1742 358.5 1683 378.5 1691 495.5"></polygon>
            <polygon id="Path" stroke="#092E48" fill="#092E48" points="1748 216.5 1645 159.5 1735 218.5"></polygon>
            <polygon id="Path" stroke="#082D47" fill="#082D47" points="1804 668.5 1740 692.5 1771 702.5"></polygon>
            <polygon id="Path" stroke="#082D47" fill="#082D47" points="1804 668.5 1763 610.5 1740 692.5"></polygon>
            <polygon id="Path" stroke="#082D47" fill="#082D47" points="1771 702.5 1740 692.5 1757 775.5"></polygon>
            <polygon id="Path" stroke="#082E48" fill="#082E48" points="1772 259.5 1735 218.5 1770 295.5"></polygon>
            <polygon id="Path" stroke="#082E48" fill="#082E48" points="1772 259.5 1748 216.5 1735 218.5"></polygon>
            <polygon id="Path" stroke="#092E48" fill="#092E48" points="1770 295.5 1735 218.5 1624 356.5"></polygon>
            <polygon id="Path" stroke="#092E48" fill="#092E48" points="1770 295.5 1624 356.5 1683 378.5"></polygon>
            <polygon id="Path" stroke="#092E48" fill="#092E48" points="1770 295.5 1683 378.5 1742 358.5"></polygon>
            <polygon id="Path" stroke="#082D48" fill="#082D48" points="1757 775.5 1740 692.5 1659 697.5"></polygon>
            <polygon id="Path" stroke="#092E48" fill="#092E48" points="1763 610.5 1709 546.5 1658 548.5"></polygon>
            <polygon id="Path" stroke="#092E48" fill="#092E48" points="1763 610.5 1658 548.5 1659 697.5"></polygon>
            <polygon id="Path" stroke="#082D48" fill="#082D48" points="1763 610.5 1659 697.5 1740 692.5"></polygon>
            <polygon id="Path" stroke="#0B314C" fill="#0B314C" points="1461 779.5 1358 740.5 974 779.5"></polygon>
            <polygon id="Path" stroke="#082E48" fill="#082E48" points="1757 775.5 1659 697.5 1624 779.5"></polygon>
            <polygon id="Path" stroke="#092E49" fill="#092E49" points="1735 218.5 1645 159.5 1565 198.5"></polygon>
            <polygon id="Path" stroke="#092E49" fill="#092E49" points="1735 218.5 1565 198.5 1624 356.5"></polygon>
            <polygon id="Path" stroke="#092E48" fill="#092E48" points="1659 697.5 1658 548.5 1592 643.5"></polygon>
            <polygon id="Path" stroke="#15405E" fill="#15405E" points="974 0.5 478 0.5 684 30.5"></polygon>
            <polygon id="Path" stroke="#092E48" fill="#092E48" points="1691 495.5 1683 378.5 1640 486.5"></polygon>
            <polygon id="Path" stroke="#092E49" fill="#092E49" points="1696 0.5 1562 97.5 1645 159.5"></polygon>
            <polygon id="Path" stroke="#092F49" fill="#092F49" points="1696 0.5 1555 65.5 1562 97.5"></polygon>
            <polygon id="Path" stroke="#092E48" fill="#092E48" points="1709 546.5 1691 495.5 1658 548.5"></polygon>
            <polygon id="Path" stroke="#092E49" fill="#092E49" points="1683 378.5 1624 356.5 1640 486.5"></polygon>
            <polygon id="Path" stroke="#092E48" fill="#092E48" points="1691 495.5 1640 486.5 1658 548.5"></polygon>
            <polygon id="Path" stroke="#092F49" fill="#092F49" points="1696 0.5 1524 3.5 1555 65.5"></polygon>
            <polygon id="Path" stroke="#092F49" fill="#092F49" points="1640 486.5 1624 356.5 1524 487.5"></polygon>
            <polygon id="Path" stroke="#092E49" fill="#092E49" points="1658 548.5 1640 486.5 1548 563.5"></polygon>
            <polygon id="Path" stroke="#092E49" fill="#092E49" points="1658 548.5 1548 563.5 1592 643.5"></polygon>
            <polygon id="Path" stroke="#092E48" fill="#092E48" points="1659 697.5 1557 715.5 1624 779.5"></polygon>
            <polygon id="Path" stroke="#092E49" fill="#092E49" points="1659 697.5 1592 643.5 1557 715.5"></polygon>
            <polygon id="Path" stroke="#092E49" fill="#092E49" points="1624 779.5 1557 715.5 1586 779.5"></polygon>
            <polygon id="Path" stroke="#092F49" fill="#092F49" points="1640 486.5 1524 487.5 1548 563.5"></polygon>
            <polygon id="Path" stroke="#092F49" fill="#092F49" points="1645 159.5 1562 97.5 1565 198.5"></polygon>
            <polygon id="Path" stroke="#0B314C" fill="#0B314C" points="1483 0.5 1310 0.5 1386 15.5"></polygon>
            <polygon id="Path" stroke="#092F49" fill="#092F49" points="1592 643.5 1548 563.5 1556 638.5"></polygon>
            <polygon id="Path" stroke="#0A304A" fill="#0A304A" points="1624 356.5 1439 404.5 1475 444.5"></polygon>
            <polygon id="Path" stroke="#0A2F4A" fill="#0A2F4A" points="1624 356.5 1565 198.5 1461 214.5"></polygon>
            <polygon id="Path" stroke="#0A304A" fill="#0A304A" points="1624 356.5 1461 214.5 1439 404.5"></polygon>
            <polygon id="Path" stroke="#0A2F4A" fill="#0A2F4A" points="1624 356.5 1475 444.5 1524 487.5"></polygon>
            <polygon id="Path" stroke="#092F49" fill="#092F49" points="1592 643.5 1556 638.5 1557 715.5"></polygon>
            <polygon id="Path" stroke="#092F49" fill="#092F49" points="1557 715.5 1556 638.5 1511 661.5"></polygon>
            <polygon id="Path" stroke="#0A2F4A" fill="#0A2F4A" points="1565 198.5 1562 97.5 1457 161.5"></polygon>
            <polygon id="Path" stroke="#092F49" fill="#092F49" points="1586 779.5 1557 715.5 1461 779.5"></polygon>
            <polygon id="Path" stroke="#0B304B" fill="#0B304B" points="1461 214.5 1382 285.5 1439 404.5"></polygon>
            <polygon id="Path" stroke="#0A2F4A" fill="#0A2F4A" points="1535 564.5 1524 487.5 1511 494.5"></polygon>
            <polygon id="Path" stroke="#0A2F4A" fill="#0A2F4A" points="1548 563.5 1524 487.5 1535 564.5"></polygon>
            <polygon id="Path" stroke="#0A2F4A" fill="#0A2F4A" points="1556 638.5 1535 564.5 1485 586.5"></polygon>
            <polygon id="Path" stroke="#092F49" fill="#092F49" points="1556 638.5 1548 563.5 1535 564.5"></polygon>
            <polygon id="Path" stroke="#0A304A" fill="#0A304A" points="1565 198.5 1457 161.5 1461 214.5"></polygon>
            <polygon id="Path" stroke="#0A2F4A" fill="#0A2F4A" points="1555 65.5 1524 3.5 1489 43.5"></polygon>
            <polygon id="Path" stroke="#0A2F4A" fill="#0A2F4A" points="1562 97.5 1555 65.5 1489 43.5"></polygon>
            <polygon id="Path" stroke="#0A304A" fill="#0A304A" points="1562 97.5 1489 43.5 1457 161.5"></polygon>
            <polygon id="Path" stroke="#0A2F4A" fill="#0A2F4A" points="1556 638.5 1485 586.5 1511 661.5"></polygon>
            <polygon id="Path" stroke="#092F49" fill="#092F49" points="1557 715.5 1511 661.5 1461 779.5"></polygon>
            <polygon id="Path" stroke="#0A304B" fill="#0A304B" points="1489 43.5 1432 136.5 1457 161.5"></polygon>
            <polygon id="Path" stroke="#0A304A" fill="#0A304A" points="1524 487.5 1475 444.5 1511 494.5"></polygon>
            <polygon id="Path" stroke="#0A2F4A" fill="#0A2F4A" points="1535 564.5 1511 494.5 1485 586.5"></polygon>
            <polygon id="Path" stroke="#0B324D" fill="#0B324D" points="1358 740.5 1323 723.5 974 779.5"></polygon>
            <polygon id="Path" stroke="#0A304A" fill="#0A304A" points="1511 494.5 1446 484.5 1485 586.5"></polygon>
            <polygon id="Path" stroke="#0A2F4A" fill="#0A2F4A" points="1511 661.5 1485 586.5 1451 625.5"></polygon>
            <polygon id="Path" stroke="#0A304A" fill="#0A304A" points="1524 3.5 1483 0.5 1489 43.5"></polygon>
            <polygon id="Path" stroke="#0D3450" fill="#0D3450" points="1266 0.5 974 0.5 1122 27.5"></polygon>
            <polygon id="Path" stroke="#0C334F" fill="#0C334F" points="1323 723.5 989 767.5 974 779.5"></polygon>
            <polygon id="Path" stroke="#0A304A" fill="#0A304A" points="1511 494.5 1475 444.5 1446 484.5"></polygon>
            <polygon id="Path" stroke="#0A2F4A" fill="#0A2F4A" points="1511 661.5 1379 669.5 1461 779.5"></polygon>
            <polygon id="Path" stroke="#0A304A" fill="#0A304A" points="1511 661.5 1451 625.5 1379 669.5"></polygon>
            <polygon id="Path" stroke="#0B314C" fill="#0B314C" points="1439 404.5 1382 285.5 1372 374.5"></polygon>
            <polygon id="Path" stroke="#0A304B" fill="#0A304B" points="1461 779.5 1379 669.5 1358 740.5"></polygon>
            <polygon id="Path" stroke="#0A304B" fill="#0A304B" points="1485 586.5 1446 484.5 1425 594.5"></polygon>
            <polygon id="Path" stroke="#0A304B" fill="#0A304B" points="1489 43.5 1393 75.5 1432 136.5"></polygon>
            <polygon id="Path" stroke="#0A304B" fill="#0A304B" points="1489 43.5 1483 0.5 1394 26.5"></polygon>
            <polygon id="Path" stroke="#0A304B" fill="#0A304B" points="1489 43.5 1394 26.5 1393 75.5"></polygon>
            <polygon id="Path" stroke="#0A304B" fill="#0A304B" points="1475 444.5 1439 404.5 1435 437.5"></polygon>
            <polygon id="Path" stroke="#0A304A" fill="#0A304A" points="1485 586.5 1425 594.5 1451 625.5"></polygon>
            <polygon id="Path" stroke="#0A304B" fill="#0A304B" points="1483 0.5 1386 15.5 1394 26.5"></polygon>
            <polygon id="Path" stroke="#0B314C" fill="#0B314C" points="1461 214.5 1372 255.5 1382 285.5"></polygon>
            <polygon id="Path" stroke="#0A304B" fill="#0A304B" points="1475 444.5 1435 437.5 1446 484.5"></polygon>
            <polygon id="Path" stroke="#0A304B" fill="#0A304B" points="1446 484.5 1407 459.5 1425 594.5"></polygon>
            <polygon id="Path" stroke="#0A304B" fill="#0A304B" points="1461 214.5 1457 161.5 1432 136.5"></polygon>
            <polygon id="Path" stroke="#0B314B" fill="#0B314B" points="1461 214.5 1432 136.5 1372 255.5"></polygon>
            <polygon id="Path" stroke="#0A304B" fill="#0A304B" points="1446 484.5 1435 437.5 1407 459.5"></polygon>
            <polygon id="Path" stroke="#0B314C" fill="#0B314C" points="1432 136.5 1333 140.5 1372 255.5"></polygon>
            <polygon id="Path" stroke="#0A304B" fill="#0A304B" points="1451 625.5 1425 594.5 1379 669.5"></polygon>
            <polygon id="Path" stroke="#0B314C" fill="#0B314C" points="1425 594.5 1407 459.5 1253 526.5"></polygon>
            <polygon id="Path" stroke="#0A304B" fill="#0A304B" points="1439 404.5 1407 459.5 1435 437.5"></polygon>
            <polygon id="Path" stroke="#0B314B" fill="#0B314B" points="1439 404.5 1372 374.5 1407 459.5"></polygon>
            <polygon id="Path" stroke="#0B314C" fill="#0B314C" points="1432 136.5 1393 75.5 1333 140.5"></polygon>
            <polygon id="Path" stroke="#0B324D" fill="#0B324D" points="1407 459.5 1291 441.5 1253 526.5"></polygon>
            <polygon id="Path" stroke="#0B314C" fill="#0B314C" points="1425 594.5 1253 526.5 1346 657.5"></polygon>
            <polygon id="Path" stroke="#0A304B" fill="#0A304B" points="1425 594.5 1346 657.5 1379 669.5"></polygon>
            <polygon id="Path" stroke="#0B314C" fill="#0B314C" points="1382 285.5 1333 339.5 1372 374.5"></polygon>
            <polygon id="Path" stroke="#0B314C" fill="#0B314C" points="1407 459.5 1372 374.5 1291 441.5"></polygon>
            <polygon id="Path" stroke="#0B324D" fill="#0B324D" points="1372 255.5 1333 140.5 1268 181.5"></polygon>
            <polygon id="Path" stroke="#0A304B" fill="#0A304B" points="1379 669.5 1323 723.5 1358 740.5"></polygon>
            <polygon id="Path" stroke="#0B314C" fill="#0B314C" points="1393 75.5 1293 77.5 1333 140.5"></polygon>
            <polygon id="Path" stroke="#0B314C" fill="#0B314C" points="1393 75.5 1317 17.5 1293 77.5"></polygon>
            <polygon id="Path" stroke="#0B314C" fill="#0B314C" points="1394 26.5 1317 17.5 1393 75.5"></polygon>
            <polygon id="Path" stroke="#0B314C" fill="#0B314C" points="1394 26.5 1386 15.5 1317 17.5"></polygon>
            <polygon id="Path" stroke="#0C334F" fill="#0C334F" points="1323 723.5 1006 743.5 989 767.5"></polygon>
            <polygon id="Path" stroke="#0B314B" fill="#0B314B" points="1379 669.5 1346 657.5 1323 723.5"></polygon>
            <polygon id="Path" stroke="#0B314C" fill="#0B314C" points="1386 15.5 1310 0.5 1317 17.5"></polygon>
            <polygon id="Path" stroke="#0B324D" fill="#0B324D" points="1372 255.5 1268 181.5 1297 277.5"></polygon>
            <polygon id="Path" stroke="#0B314C" fill="#0B314C" points="1382 285.5 1372 255.5 1297 277.5"></polygon>
            <polygon id="Path" stroke="#0B324D" fill="#0B324D" points="1382 285.5 1297 277.5 1333 339.5"></polygon>
            <polygon id="Path" stroke="#0B324D" fill="#0B324D" points="1346 657.5 1253 526.5 1239 648.5"></polygon>
            <polygon id="Path" stroke="#0B324D" fill="#0B324D" points="1372 374.5 1333 339.5 1291 441.5"></polygon>
            <polygon id="Path" stroke="#0C324D" fill="#0C324D" points="1333 140.5 1289 143.5 1268 181.5"></polygon>
            <polygon id="Path" stroke="#0C324D" fill="#0C324D" points="1323 723.5 1239 648.5 1006 743.5"></polygon>
            <polygon id="Path" stroke="#0C324D" fill="#0C324D" points="1333 140.5 1293 77.5 1289 143.5"></polygon>
            <polygon id="Path" stroke="#0C324D" fill="#0C324D" points="1333 339.5 1232 385.5 1291 441.5"></polygon>
            <polygon id="Path" stroke="#0B314C" fill="#0B314C" points="1346 657.5 1239 648.5 1323 723.5"></polygon>
            <polygon id="Path" stroke="#0D344F" fill="#0D344F" points="1239 648.5 1021 712.5 1006 743.5"></polygon>
            <polygon id="Path" stroke="#0C324D" fill="#0C324D" points="1333 339.5 1297 277.5 1224 323.5"></polygon>
            <polygon id="Path" stroke="#0C334E" fill="#0C334E" points="1333 339.5 1224 323.5 1232 385.5"></polygon>
            <polygon id="Path" stroke="#0C324E" fill="#0C324E" points="1253 526.5 1194 589.5 1239 648.5"></polygon>
            <polygon id="Path" stroke="#0C334E" fill="#0C334E" points="1297 277.5 1268 181.5 1221 219.5"></polygon>
            <polygon id="Path" stroke="#0B324D" fill="#0B324D" points="1317 17.5 1310 0.5 1266 0.5"></polygon>
            <polygon id="Path" stroke="#0C324D" fill="#0C324D" points="1317 17.5 1266 0.5 1293 77.5"></polygon>
            <polygon id="Path" stroke="#0C324E" fill="#0C324E" points="1293 77.5 1236 135.5 1289 143.5"></polygon>
            <polygon id="Path" stroke="#0C334E" fill="#0C334E" points="1297 277.5 1188 276.5 1224 323.5"></polygon>
            <polygon id="Path" stroke="#0C334E" fill="#0C334E" points="1297 277.5 1221 219.5 1188 276.5"></polygon>
            <polygon id="Path" stroke="#0C324E" fill="#0C324E" points="1291 441.5 1232 385.5 1253 526.5"></polygon>
            <polygon id="Path" stroke="#0C324E" fill="#0C324E" points="1293 77.5 1266 0.5 1236 135.5"></polygon>
            <polygon id="Path" stroke="#0C334E" fill="#0C334E" points="1289 143.5 1236 135.5 1268 181.5"></polygon>
            <polygon id="Path" stroke="#0D334F" fill="#0D334F" points="1224 323.5 1188 276.5 1201 309.5"></polygon>
            <polygon id="Path" stroke="#0D3450" fill="#0D3450" points="1236 135.5 1122 27.5 1122 88.5"></polygon>
            <polygon id="Path" stroke="#0C334F" fill="#0C334F" points="1253 526.5 1232 385.5 1093 553.5"></polygon>
            <polygon id="Path" stroke="#0C334F" fill="#0C334F" points="1266 0.5 1122 27.5 1236 135.5"></polygon>
            <polygon id="Path" stroke="#0C334E" fill="#0C334E" points="1268 181.5 1236 135.5 1207 150.5"></polygon>
            <polygon id="Path" stroke="#0C334E" fill="#0C334E" points="1268 181.5 1207 150.5 1221 219.5"></polygon>
            <polygon id="Path" stroke="#0D3450" fill="#0D3450" points="1232 385.5 1063 396.5 1093 553.5"></polygon>
            <polygon id="Path" stroke="#0D344F" fill="#0D344F" points="1236 135.5 1122 88.5 1207 150.5"></polygon>
            <polygon id="Path" stroke="#0D334F" fill="#0D334F" points="1239 648.5 1126 589.5 1021 712.5"></polygon>
            <polygon id="Path" stroke="#0C334F" fill="#0C334F" points="1253 526.5 1093 553.5 1194 589.5"></polygon>
            <polygon id="Path" stroke="#0D344F" fill="#0D344F" points="1221 219.5 1176 257.5 1188 276.5"></polygon>
            <polygon id="Path" stroke="#0C334E" fill="#0C334E" points="1239 648.5 1194 589.5 1126 589.5"></polygon>
            <polygon id="Path" stroke="#0C334F" fill="#0C334F" points="1232 385.5 1224 323.5 1201 309.5"></polygon>
            <polygon id="Path" stroke="#0D344F" fill="#0D344F" points="1194 589.5 1093 553.5 1126 589.5"></polygon>
            <polygon id="Path" stroke="#0D344F" fill="#0D344F" points="1232 385.5 1201 309.5 1129 300.5"></polygon>
            <polygon id="Path" stroke="#0D3450" fill="#0D3450" points="1232 385.5 1129 300.5 1063 396.5"></polygon>
            <polygon id="Path" stroke="#0D344F" fill="#0D344F" points="1221 219.5 1207 150.5 1121 173.5"></polygon>
            <polygon id="Path" stroke="#0D3450" fill="#0D3450" points="1221 219.5 1121 173.5 1176 257.5"></polygon>
            <polygon id="Path" stroke="#123B58" fill="#123B58" points="974 0.5 684 30.5 907 25.5"></polygon>
            <polygon id="Path" stroke="#0D3450" fill="#0D3450" points="1207 150.5 1122 88.5 1118 134.5"></polygon>
            <polygon id="Path" stroke="#0D3450" fill="#0D3450" points="1207 150.5 1118 134.5 1121 173.5"></polygon>
            <polygon id="Path" stroke="#0D344F" fill="#0D344F" points="1201 309.5 1188 276.5 1157 284.5"></polygon>
            <polygon id="Path" stroke="#0D3450" fill="#0D3450" points="1201 309.5 1157 284.5 1129 300.5"></polygon>
            <polygon id="Path" stroke="#0F3652" fill="#0F3652" points="1122 27.5 974 0.5 982 7.5"></polygon>
            <polygon id="Path" stroke="#0D3550" fill="#0D3550" points="1176 257.5 1121 173.5 1116 269.5"></polygon>
            <polygon id="Path" stroke="#0D3450" fill="#0D3450" points="1188 276.5 1176 257.5 1157 284.5"></polygon>
            <polygon id="Path" stroke="#0E3652" fill="#0E3652" points="1093 553.5 1063 396.5 1017 452.5"></polygon>
            <polygon id="Path" stroke="#0D3450" fill="#0D3450" points="1176 257.5 1116 269.5 1157 284.5"></polygon>
            <polygon id="Path" stroke="#0D3550" fill="#0D3550" points="1157 284.5 1116 269.5 1129 300.5"></polygon>
            <polygon id="Path" stroke="#0E3652" fill="#0E3652" points="1121 173.5 1007 224.5 1116 269.5"></polygon>
            <polygon id="Path" stroke="#0E3551" fill="#0E3551" points="1122 88.5 1074 130.5 1118 134.5"></polygon>
            <polygon id="Path" stroke="#0E3551" fill="#0E3551" points="1122 27.5 1064 75.5 1122 88.5"></polygon>
            <polygon id="Path" stroke="#0D3450" fill="#0D3450" points="1126 589.5 1093 553.5 1021 712.5"></polygon>
            <polygon id="Path" stroke="#0E3551" fill="#0E3551" points="1129 300.5 1116 269.5 1063 396.5"></polygon>
            <polygon id="Path" stroke="#0E3551" fill="#0E3551" points="1121 173.5 1118 134.5 1074 130.5"></polygon>
            <polygon id="Path" stroke="#0E3652" fill="#0E3652" points="1116 269.5 1007 224.5 1063 396.5"></polygon>
            <polygon id="Path" stroke="#0E3652" fill="#0E3652" points="1121 173.5 1074 130.5 1010 162.5"></polygon>
            <polygon id="Path" stroke="#0F3653" fill="#0F3653" points="1121 173.5 1010 162.5 1007 224.5"></polygon>
            <polygon id="Path" stroke="#0E3551" fill="#0E3551" points="1122 88.5 1064 75.5 1074 130.5"></polygon>
            <polygon id="Path" stroke="#0E3652" fill="#0E3652" points="1122 27.5 982 7.5 1064 75.5"></polygon>
            <polygon id="Path" stroke="#0E3652" fill="#0E3652" points="1093 553.5 936 505.5 1021 712.5"></polygon>
            <polygon id="Path" stroke="#0F3652" fill="#0F3652" points="1093 553.5 1017 452.5 936 505.5"></polygon>
            <polygon id="Path" stroke="#103955" fill="#103955" points="1063 396.5 914 229.5 894 240.5"></polygon>
            <polygon id="Path" stroke="#103955" fill="#103955" points="1063 396.5 894 240.5 907 453.5"></polygon>
            <polygon id="Path" stroke="#103854" fill="#103854" points="1063 396.5 1007 224.5 914 229.5"></polygon>
            <polygon id="Path" stroke="#0F3753" fill="#0F3753" points="1064 75.5 978 76.5 1010 162.5"></polygon>
            <polygon id="Path" stroke="#0F3652" fill="#0F3652" points="1074 130.5 1064 75.5 1010 162.5"></polygon>
            <polygon id="Path" stroke="#0E3652" fill="#0E3652" points="1021 712.5 936 505.5 986 729.5"></polygon>
            <polygon id="Path" stroke="#0F3753" fill="#0F3753" points="1063 396.5 907 453.5 1017 452.5"></polygon>
            <polygon id="Path" stroke="#0F3753" fill="#0F3753" points="1064 75.5 982 7.5 978 76.5"></polygon>
            <polygon id="Path" stroke="#103854" fill="#103854" points="958 740.5 824 598.5 840 699.5"></polygon>
            <polygon id="Path" stroke="#0F3754" fill="#0F3754" points="986 729.5 936 505.5 899 512.5"></polygon>
            <polygon id="Path" stroke="#0F3753" fill="#0F3753" points="986 729.5 824 598.5 958 740.5"></polygon>
            <polygon id="Path" stroke="#103854" fill="#103854" points="986 729.5 899 512.5 824 598.5"></polygon>
            <polygon id="Path" stroke="#0E3551" fill="#0E3551" points="1021 712.5 986 729.5 1006 743.5"></polygon>
            <polygon id="Path" stroke="#0F3753" fill="#0F3753" points="958 740.5 840 699.5 857 720.5"></polygon>
            <polygon id="Path" stroke="#103854" fill="#103854" points="1010 162.5 926 209.5 1007 224.5"></polygon>
            <polygon id="Path" stroke="#103854" fill="#103854" points="1017 452.5 907 453.5 936 505.5"></polygon>
            <polygon id="Path" stroke="#103956" fill="#103956" points="1007 224.5 926 209.5 914 229.5"></polygon>
            <polygon id="Path" stroke="#103855" fill="#103855" points="1010 162.5 978 76.5 910 87.5"></polygon>
            <polygon id="Path" stroke="#103955" fill="#103955" points="1010 162.5 910 87.5 926 209.5"></polygon>
            <polygon id="Path" stroke="#0E3551" fill="#0E3551" points="1006 743.5 980 739.5 989 767.5"></polygon>
            <polygon id="Path" stroke="#0E3551" fill="#0E3551" points="1006 743.5 986 729.5 980 739.5"></polygon>
            <polygon id="Path" stroke="#123B59" fill="#123B59" points="907 453.5 894 240.5 797 294.5"></polygon>
            <polygon id="Path" stroke="#103854" fill="#103854" points="982 7.5 907 25.5 978 76.5"></polygon>
            <polygon id="Path" stroke="#103854" fill="#103854" points="982 7.5 974 0.5 907 25.5"></polygon>
            <polygon id="Path" stroke="#0E3551" fill="#0E3551" points="989 767.5 980 739.5 958 740.5"></polygon>
            <polygon id="Path" stroke="#0E3551" fill="#0E3551" points="989 767.5 958 740.5 974 779.5"></polygon>
            <polygon id="Path" stroke="#0E3551" fill="#0E3551" points="986 729.5 958 740.5 980 739.5"></polygon>
            <polygon id="Path" stroke="#103955" fill="#103955" points="978 76.5 907 25.5 910 87.5"></polygon>
            <polygon id="Path" stroke="#0E3551" fill="#0E3551" points="974 779.5 958 740.5 944 779.5"></polygon>
            <polygon id="Path" stroke="#113A57" fill="#113A57" points="926 209.5 910 87.5 857 117.5"></polygon>
            <polygon id="Path" stroke="#103955" fill="#103955" points="936 505.5 907 453.5 911 498.5"></polygon>
            <polygon id="Path" stroke="#0E3551" fill="#0E3551" points="958 740.5 937 779.5 944 779.5"></polygon>
            <polygon id="Path" stroke="#0E3652" fill="#0E3652" points="958 740.5 857 720.5 937 779.5"></polygon>
            <polygon id="Path" stroke="#103955" fill="#103955" points="936 505.5 913 503.5 899 512.5"></polygon>
            <polygon id="Path" stroke="#113A57" fill="#113A57" points="899 512.5 828 534.5 824 598.5"></polygon>
            <polygon id="Path" stroke="#123B58" fill="#123B58" points="907 453.5 797 294.5 859 476.5"></polygon>
            <polygon id="Path" stroke="#103955" fill="#103955" points="936 505.5 911 498.5 913 503.5"></polygon>
            <polygon id="Path" stroke="#0F3753" fill="#0F3753" points="937 779.5 857 720.5 829 779.5"></polygon>
            <polygon id="Path" stroke="#113A57" fill="#113A57" points="926 209.5 894 240.5 914 229.5"></polygon>
            <polygon id="Path" stroke="#123B58" fill="#123B58" points="926 209.5 857 117.5 894 240.5"></polygon>
            <polygon id="Path" stroke="#133D5A" fill="#133D5A" points="859 476.5 797 294.5 764 457.5"></polygon>
            <polygon id="Path" stroke="#113A57" fill="#113A57" points="910 87.5 907 25.5 857 117.5"></polygon>
            <polygon id="Path" stroke="#113956" fill="#113956" points="911 498.5 907 453.5 867 484.5"></polygon>
            <polygon id="Path" stroke="#103956" fill="#103956" points="913 503.5 911 498.5 899 512.5"></polygon>
            <polygon id="Path" stroke="#143D5B" fill="#143D5B" points="907 25.5 684 30.5 765 105.5"></polygon>
            <polygon id="Path" stroke="#113956" fill="#113956" points="911 498.5 867 484.5 899 512.5"></polygon>
            <polygon id="Path" stroke="#123C59" fill="#123C59" points="907 25.5 765 105.5 857 117.5"></polygon>
            <polygon id="Path" stroke="#113A57" fill="#113A57" points="907 453.5 859 476.5 867 484.5"></polygon>
            <polygon id="Path" stroke="#133D5A" fill="#133D5A" points="894 240.5 857 117.5 730 207.5"></polygon>
            <polygon id="Path" stroke="#143E5B" fill="#143E5B" points="894 240.5 730 207.5 797 294.5"></polygon>
            <polygon id="Path" stroke="#113A57" fill="#113A57" points="899 512.5 867 484.5 828 534.5"></polygon>
            <polygon id="Path" stroke="#153F5D" fill="#153F5D" points="797 294.5 711 345.5 764 457.5"></polygon>
            <polygon id="Path" stroke="#143E5C" fill="#143E5C" points="857 117.5 765 105.5 730 207.5"></polygon>
            <polygon id="Path" stroke="#123B58" fill="#123B58" points="867 484.5 859 476.5 828 534.5"></polygon>
            <polygon id="Path" stroke="#143E5B" fill="#143E5B" points="829 779.5 572 648.5 395 747.5"></polygon>
            <polygon id="Path" stroke="#103854" fill="#103854" points="857 720.5 840 699.5 829 779.5"></polygon>
            <polygon id="Path" stroke="#123C59" fill="#123C59" points="859 476.5 764 457.5 828 534.5"></polygon>
            <polygon id="Path" stroke="#113A56" fill="#113A56" points="840 699.5 655 633.5 829 779.5"></polygon>
            <polygon id="Path" stroke="#123B58" fill="#123B58" points="840 699.5 824 598.5 655 633.5"></polygon>
            <polygon id="Path" stroke="#123C59" fill="#123C59" points="828 534.5 655 633.5 824 598.5"></polygon>
            <polygon id="Path" stroke="#143D5B" fill="#143D5B" points="828 534.5 764 457.5 655 633.5"></polygon>
            <polygon id="Path" stroke="#133C5A" fill="#133C5A" points="829 779.5 655 633.5 572 648.5"></polygon>
            <polygon id="Path" stroke="#16405F" fill="#16405F" points="764 457.5 628 459.5 655 633.5"></polygon>
            <polygon id="Path" stroke="#16405F" fill="#16405F" points="797 294.5 730 207.5 711 345.5"></polygon>
            <polygon id="Path" stroke="#174260" fill="#174260" points="655 633.5 628 459.5 598 589.5"></polygon>
            <polygon id="Path" stroke="#164160" fill="#164160" points="764 457.5 711 345.5 628 459.5"></polygon>
            <polygon id="Path" stroke="#16415F" fill="#16415F" points="765 105.5 684 30.5 730 207.5"></polygon>
            <polygon id="Path" stroke="#1B4767" fill="#1B4767" points="730 207.5 684 30.5 440 134.5"></polygon>
            <polygon id="Path" stroke="#194564" fill="#194564" points="730 207.5 544 382.5 711 345.5"></polygon>
            <polygon id="Path" stroke="#1E4D6D" fill="#1E4D6D" points="730 207.5 440 134.5 544 382.5"></polygon>
            <polygon id="Path" stroke="#1A4666" fill="#1A4666" points="711 345.5 544 382.5 628 459.5"></polygon>
            <polygon id="Path" stroke="#184463" fill="#184463" points="191 761.5 54 767.5 0 779.5"></polygon>
            <polygon id="Path" stroke="#1E4C6C" fill="#1E4C6C" points="684 30.5 478 0.5 440 134.5"></polygon>
            <polygon id="Path" stroke="#16415F" fill="#16415F" points="655 633.5 598 589.5 572 648.5"></polygon>
            <polygon id="Path" stroke="#295C7F" fill="#295C7F" points="544 382.5 440 134.5 376 310.5"></polygon>
            <polygon id="Path" stroke="#184362" fill="#184362" points="572 648.5 408 702.5 395 747.5"></polygon>
            <polygon id="Path" stroke="#1A4766" fill="#1A4766" points="628 459.5 458 516.5 598 589.5"></polygon>
            <polygon id="Path" stroke="#1D4B6B" fill="#1D4B6B" points="628 459.5 544 382.5 458 516.5"></polygon>
            <polygon id="Path" stroke="#184463" fill="#184463" points="572 648.5 409 700.5 408 702.5"></polygon>
            <polygon id="Path" stroke="#194564" fill="#194564" points="598 589.5 424 574.5 572 648.5"></polygon>
            <polygon id="Path" stroke="#1C4969" fill="#1C4969" points="598 589.5 458 516.5 424 574.5"></polygon>
            <polygon id="Path" stroke="#285B7E" fill="#285B7E" points="544 382.5 376 310.5 403 373.5"></polygon>
            <polygon id="Path" stroke="#194665" fill="#194665" points="572 648.5 424 574.5 409 700.5"></polygon>
            <polygon id="Path" stroke="#255678" fill="#255678" points="458 516.5 403 373.5 397 483.5"></polygon>
            <polygon id="Path" stroke="#235375" fill="#235375" points="544 382.5 403 373.5 458 516.5"></polygon>
            <polygon id="Path" stroke="#1B4867" fill="#1B4867" points="409 700.5 387 599.5 383 681.5"></polygon>
            <polygon id="Path" stroke="#1C4969" fill="#1C4969" points="424 574.5 387 599.5 409 700.5"></polygon>
            <polygon id="Path" stroke="#2E6389" fill="#2E6389" points="440 134.5 411 127.5 376 310.5"></polygon>
            <polygon id="Path" stroke="#1F4D6E" fill="#1F4D6E" points="458 516.5 440 523.5 424 574.5"></polygon>
            <polygon id="Path" stroke="#25577A" fill="#25577A" points="478 0.5 411 127.5 440 134.5"></polygon>
            <polygon id="Path" stroke="#295C80" fill="#295C80" points="478 0.5 216 0.5 411 127.5"></polygon>
            <polygon id="Path" stroke="#2A5D81" fill="#2A5D81" points="403 373.5 353 420.5 397 483.5"></polygon>
            <polygon id="Path" stroke="#3A739C" fill="#3A739C" points="411 127.5 267 206.5 376 310.5"></polygon>
            <polygon id="Path" stroke="#215072" fill="#215072" points="458 516.5 397 483.5 440 523.5"></polygon>
            <polygon id="Path" stroke="#215072" fill="#215072" points="440 523.5 368 496.5 424 574.5"></polygon>
            <polygon id="Path" stroke="#235476" fill="#235476" points="440 523.5 397 483.5 368 496.5"></polygon>
            <polygon id="Path" stroke="#295C80" fill="#295C80" points="397 483.5 353 420.5 352 465.5"></polygon>
            <polygon id="Path" stroke="#184463" fill="#184463" points="408 702.5 386 720.5 395 747.5"></polygon>
            <polygon id="Path" stroke="#39729B" fill="#39729B" points="411 127.5 216 0.5 263 175.5"></polygon>
            <polygon id="Path" stroke="#3F7BA6" fill="#3F7BA6" points="411 127.5 263 175.5 267 206.5"></polygon>
            <polygon id="Path" stroke="#204F71" fill="#204F71" points="424 574.5 368 496.5 387 599.5"></polygon>
            <polygon id="Path" stroke="#225273" fill="#225273" points="387 599.5 368 496.5 305 585.5"></polygon>
            <polygon id="Path" stroke="#194665" fill="#194665" points="395 747.5 293 691.5 191 761.5"></polygon>
            <polygon id="Path" stroke="#194564" fill="#194564" points="409 700.5 383 681.5 408 702.5"></polygon>
            <polygon id="Path" stroke="#194564" fill="#194564" points="408 702.5 383 681.5 386 720.5"></polygon>
            <polygon id="Path" stroke="#2F658B" fill="#2F658B" points="403 373.5 376 310.5 353 420.5"></polygon>
            <polygon id="Path" stroke="#366F97" fill="#366F97" points="376 310.5 292 328.5 353 420.5"></polygon>
            <polygon id="Path" stroke="#1E4C6C" fill="#1E4C6C" points="387 599.5 295 595.5 383 681.5"></polygon>
            <polygon id="Path" stroke="#27587C" fill="#27587C" points="397 483.5 352 465.5 368 496.5"></polygon>
            <polygon id="Path" stroke="#4482AE" fill="#4482AE" points="376 310.5 267 206.5 292 328.5"></polygon>
            <polygon id="Path" stroke="#1D4A6B" fill="#1D4A6B" points="383 681.5 295 595.5 293 691.5"></polygon>
            <polygon id="Path" stroke="#205071" fill="#205071" points="387 599.5 305 585.5 295 595.5"></polygon>
            <polygon id="Path" stroke="#194564" fill="#194564" points="395 747.5 386 720.5 293 691.5"></polygon>
            <polygon id="Path" stroke="#1A4666" fill="#1A4666" points="386 720.5 383 681.5 293 691.5"></polygon>
            <polygon id="Path" stroke="#285B7E" fill="#285B7E" points="368 496.5 352 465.5 254 545.5"></polygon>
            <polygon id="Path" stroke="#255779" fill="#255779" points="368 496.5 254 545.5 305 585.5"></polygon>
            <polygon id="Path" stroke="#2B5F83" fill="#2B5F83" points="353 420.5 254 545.5 352 465.5"></polygon>
            <polygon id="Path" stroke="#336990" fill="#336990" points="353 420.5 292 328.5 254 545.5"></polygon>
            <polygon id="Path" stroke="#387199" fill="#387199" points="292 328.5 122 460.5 254 545.5"></polygon>
            <polygon id="Path" stroke="#4C8EBC" fill="#4C8EBC" points="263 175.5 181 27.5 222 185.5"></polygon>
            <polygon id="Path" stroke="#3C76A0" fill="#3C76A0" points="263 175.5 216 0.5 181 27.5"></polygon>
            <polygon id="Path" stroke="#64B0E6" fill="#64B0E6" points="292 328.5 267 206.5 134 259.5"></polygon>
            <polygon id="Path" stroke="#1F4E6F" fill="#1F4E6F" points="295 595.5 220 621.5 293 691.5"></polygon>
            <polygon id="Path" stroke="#235476" fill="#235476" points="305 585.5 254 545.5 295 595.5"></polygon>
            <polygon id="Path" stroke="#589FD1" fill="#589FD1" points="292 328.5 134 259.5 122 460.5"></polygon>
            <polygon id="Path" stroke="#245577" fill="#245577" points="295 595.5 254 545.5 211 594.5"></polygon>
            <polygon id="Path" stroke="#225274" fill="#225274" points="295 595.5 211 594.5 220 621.5"></polygon>
            <polygon id="Path" stroke="#1D4B6B" fill="#1D4B6B" points="293 691.5 220 621.5 162 717.5"></polygon>
            <polygon id="Path" stroke="#1B4767" fill="#1B4767" points="293 691.5 162 717.5 191 761.5"></polygon>
            <polygon id="Path" stroke="#4888B5" fill="#4888B5" points="222 185.5 181 27.5 117 88.5"></polygon>
            <polygon id="Path" stroke="#2B5F84" fill="#2B5F84" points="254 545.5 122 460.5 184 578.5"></polygon>
            <polygon id="Path" stroke="#559ACB" fill="#559ACB" points="267 206.5 263 175.5 222 185.5"></polygon>
            <polygon id="Path" stroke="#6DBDF5" fill="#6DBDF5" points="267 206.5 222 185.5 134 259.5"></polygon>
            <polygon id="Path" stroke="#25577A" fill="#25577A" points="254 545.5 184 578.5 211 594.5"></polygon>
            <polygon id="Path" stroke="#32698F" fill="#32698F" points="215 0.5 0 0.5 181 27.5"></polygon>
            <polygon id="Path" stroke="#31678E" fill="#31678E" points="216 0.5 215 0.5 181 27.5"></polygon>
            <polygon id="Path" stroke="#1F4E6F" fill="#1F4E6F" points="220 621.5 179 609.5 162 717.5"></polygon>
            <polygon id="Path" stroke="#6FBFF8" fill="#6FBFF8" points="222 185.5 85 121.5 134 259.5"></polygon>
            <polygon id="Path" stroke="#5499CA" fill="#5499CA" points="222 185.5 117 88.5 85 121.5"></polygon>
            <polygon id="Path" stroke="#225274" fill="#225274" points="220 621.5 211 594.5 179 609.5"></polygon>
            <polygon id="Path" stroke="#4A8BB9" fill="#4A8BB9" points="134 259.5 19 405.5 122 460.5"></polygon>
            <polygon id="Path" stroke="#245477" fill="#245477" points="211 594.5 184 578.5 179 609.5"></polygon>
            <polygon id="Path" stroke="#204F71" fill="#204F71" points="179 609.5 109 585.5 162 717.5"></polygon>
            <polygon id="Path" stroke="#2A5D81" fill="#2A5D81" points="184 578.5 122 460.5 109 585.5"></polygon>
            <polygon id="Path" stroke="#1A4665" fill="#1A4665" points="191 761.5 162 717.5 54 767.5"></polygon>
            <polygon id="Path" stroke="#4F91C0" fill="#4F91C0" points="134 259.5 0 319.5 19 405.5"></polygon>
            <polygon id="Path" stroke="#204F70" fill="#204F70" points="162 717.5 109 585.5 55 611.5"></polygon>
            <polygon id="Path" stroke="#366F97" fill="#366F97" points="181 27.5 0 0.5 117 88.5"></polygon>
            <polygon id="Path" stroke="#245578" fill="#245578" points="184 578.5 109 585.5 179 609.5"></polygon>
            <polygon id="Path" stroke="#65B1E7" fill="#65B1E7" points="134 259.5 85 121.5 35 242.5"></polygon>
            <polygon id="Path" stroke="#1E4D6E" fill="#1E4D6E" points="162 717.5 55 611.5 28 643.5"></polygon>
            <polygon id="Path" stroke="#1B4868" fill="#1B4868" points="162 717.5 28 643.5 54 767.5"></polygon>
            <polygon id="Path" stroke="#1C4969" fill="#1C4969" points="54 767.5 28 643.5 14 660.5"></polygon>
            <polygon id="Path" stroke="#366F97" fill="#366F97" points="117 88.5 0 0.5 16 94.5"></polygon>
            <polygon id="Path" stroke="#2A5D81" fill="#2A5D81" points="122 460.5 15 552.5 109 585.5"></polygon>
            <polygon id="Path" stroke="#2C6084" fill="#2C6084" points="122 460.5 7 507.5 15 552.5"></polygon>
            <polygon id="Path" stroke="#5BA3D6" fill="#5BA3D6" points="134 259.5 35 242.5 0 319.5"></polygon>
            <polygon id="Path" stroke="#1B4867" fill="#1B4867" points="54 767.5 14 660.5 0 692.5"></polygon>
            <polygon id="Path" stroke="#4D8FBE" fill="#4D8FBE" points="85 121.5 0 162.5 35 242.5"></polygon>
            <polygon id="Path" stroke="#336A90" fill="#336A90" points="122 460.5 19 405.5 7 507.5"></polygon>
            <polygon id="Path" stroke="#4280AB" fill="#4280AB" points="117 88.5 16 94.5 85 121.5"></polygon>
            <polygon id="Path" stroke="#245477" fill="#245477" points="109 585.5 15 552.5 55 611.5"></polygon>
            <polygon id="Path" stroke="#3C76A0" fill="#3C76A0" points="19 405.5 0 319.5 0 390.5"></polygon>
            <polygon id="Path" stroke="#1A4665" fill="#1A4665" points="54 767.5 0 692.5 0 732.5"></polygon>
            <polygon id="Path" stroke="#3E7AA4" fill="#3E7AA4" points="85 121.5 16 94.5 2 113.5"></polygon>
            <polygon id="Path" stroke="#427FAA" fill="#427FAA" points="85 121.5 2 113.5 0 162.5"></polygon>
            <polygon id="Path" stroke="#1C4969" fill="#1C4969" points="14 660.5 0 690.5 0 692.5"></polygon>
            <polygon id="Path" stroke="#184463" fill="#184463" points="54 767.5 0 732.5 0 772.5"></polygon>
            <polygon id="Path" stroke="#215173" fill="#215173" points="55 611.5 15 552.5 28 643.5"></polygon>
            <polygon id="Path" stroke="#184362" fill="#184362" points="54 767.5 0 772.5 0 779.5"></polygon>
            <polygon id="Path" stroke="#1C496A" fill="#1C496A" points="14 660.5 0 675.5 0 690.5"></polygon>
            <polygon id="Path" stroke="#326990" fill="#326990" points="19 405.5 0 390.5 7 507.5"></polygon>
            <polygon id="Path" stroke="#204F70" fill="#204F70" points="28 643.5 15 552.5 14 660.5"></polygon>
            <polygon id="Path" stroke="#4A8BB9" fill="#4A8BB9" points="35 242.5 0 162.5 0 319.5"></polygon>
            <polygon id="Path" stroke="#1F4E6F" fill="#1F4E6F" points="15 552.5 0 675.5 14 660.5"></polygon>
            <polygon id="Path" stroke="#336B92" fill="#336B92" points="16 94.5 0 0.5 2 113.5"></polygon>
            <polygon id="Path" stroke="#235375" fill="#235375" points="15 552.5 7 507.5 0 675.5"></polygon>
            <polygon id="Path" stroke="#27597D" fill="#27597D" points="7 507.5 0 390.5 0 675.5"></polygon>
            <polygon id="Path" stroke="#366E96" fill="#366E96" points="2 113.5 0 0.5 0 162.5"></polygon>
        </g>
    </g>
</svg>