<svg xmlns="http://www.w3.org/2000/svg" viewBox="0 0 44 44">
  <path fill="#FFF" fill-rule="nonzero" d="M22 0C9.862 0 0 9.862 0 22a21.9 21.9 0 005.75 14.813l-2.25 2.25A2.005 2.005 0 001 41a2 2 0 103.938-.5l2.25-2.25A21.9 21.9 0 0022 44c12.138 0 22-9.862 22-22a21.9 21.9 0 00-5.75-14.813l2.25-2.25A2.005 2.005 0 0043 3a2 2 0 10-3.938.5l-2.25 2.25A21.9 21.9 0 0022 0zm0 2c11.058 0 20 8.942 20 20s-8.942 20-20 20S2 33.058 2 22 10.942 2 22 2zm5.813 4.719c-3.253.023-6.913 1.259-10.344 3.562-.263-.147-.525-.306-.782-.437-1.505-.77-2.877-1.27-4.125-1.438-1.247-.167-2.449.043-3.28.875-.833.832-1.043 2.034-.876 3.281.167 1.248.668 2.62 1.438 4.126 1.54 3.01 4.181 6.525 7.562 9.906 3.381 3.38 6.896 6.022 9.907 7.562 1.505.77 2.877 1.27 4.125 1.438 1.247.167 2.449-.043 3.28-.875.833-.832 1.043-2.034.876-3.282-.167-1.247-.668-2.62-1.438-4.125-.13-.256-.29-.518-.437-.78 4.235-6.31 4.846-13.405 1-17.25-1.756-1.756-4.178-2.583-6.907-2.563zm.062 1.937c2.169 0 4.067.662 5.438 2.031 3.023 3.025 2.553 8.68-.72 13.97-1.529-2.328-3.572-4.824-6-7.25-2.426-2.428-4.922-4.471-7.25-6 2.897-1.795 5.91-2.75 8.532-2.75zm-16.188 1.688c.175-.003.4.032.626.062.878.118 2.039.513 3.374 1.188-.74.596-1.488 1.207-2.187 1.906-.3.3-.562.629-.844.938.26.563.595 1.188 1 1.874a25.617 25.617 0 013.906-3.656c2.367 1.468 5.035 3.566 7.625 6.156 2.6 2.6 4.689 5.284 6.157 7.657a25.3 25.3 0 01-2.282 2.593 25.27 25.27 0 01-1.375 1.282c.682.402 1.316.74 1.875 1 .311-.283.635-.572.938-.875a26.467 26.467 0 001.906-2.157c.675 1.336 1.07 2.497 1.188 3.375.12.9-.041 1.385-.282 1.625-.24.241-.726.402-1.624.282-.9-.12-2.096-.517-3.47-1.219-2.745-1.405-6.148-3.93-9.405-7.188-3.258-3.257-5.783-6.66-7.188-9.406-.702-1.373-1.098-2.57-1.219-3.469-.12-.898.041-1.384.281-1.624.18-.18.477-.337 1-.344zm5.75 6.062c-.316.006-.572.104-.75.282-.949.949.657 4.094 3.594 7.03 2.937 2.938 6.082 4.544 7.032 3.595.949-.95-.657-4.095-3.594-7.032-2.387-2.386-4.909-3.9-6.282-3.875zm-8.062 2.5c-3.403 5.924-3.65 12.257-.094 15.813 1.735 1.735 4.123 2.562 6.813 2.562 2.823 0 5.968-.916 9-2.656a33.268 33.268 0 01-1.907-1.219c-4.843 2.503-9.752 2.654-12.5-.093-2.75-2.752-2.603-7.654-.093-12.5a34.624 34.624 0 01-1.219-1.907zm11.188 1.469c.375-.084 1.182.37 1.937 1.125.863.862 1.341 1.785 1.063 2.063-.28.279-1.2-.201-2.063-1.063-.863-.862-1.34-1.784-1.063-2.063a.23.23 0 01.125-.062z"/>
</svg>