<svg xmlns="http://www.w3.org/2000/svg" viewBox="0 0 462 513">
	<g fill="none" fill-rule="nonzero">
		<path fill="#75870F" d="M230.639 503.599L8.773 392.665V119.599l221.866 110.933z"/>
		<path fill="#434D09" d="M230.639 503.599l221.867-110.934V119.599L230.639 230.532z"/>
		<path fill="#D5F71B" d="M8.773 119.599L222.106 8.665l230.4 110.934-221.867 110.933z"/>
		<path fill="#000" d="M230.639 512.132c-1.707 0-2.56 0-3.413-.853L5.359 400.345c-3.413-1.707-5.12-4.267-5.12-7.68V119.599c0-2.56 1.707-5.973 4.267-7.68 2.56-1.707 5.973-1.707 8.533 0l221.867 110.933c2.56 1.707 5.12 4.267 5.12 7.68v273.067c0 2.56-1.707 5.973-4.267 7.68-1.706 0-3.413.853-5.12.853zM17.306 387.545l204.8 102.4V235.652l-204.8-102.4v254.293z"/>
		<path fill="#000" d="M230.639 512.132c-1.707 0-3.413 0-4.267-.853-2.56-1.707-4.267-5.12-4.267-7.68V230.532c0-3.413 1.707-5.973 5.12-7.68l221.867-110.933c2.56-1.707 5.973-.853 8.533 0 2.56 1.707 4.267 4.267 4.267 7.68v273.067c0 3.413-1.707 5.973-5.12 7.68L234.906 511.279c-1.707.853-2.56.853-4.267.853zm8.534-276.48v254.293l204.8-102.4V133.252l-204.8 102.4z"/>
		<path fill="#000" d="M230.639 239.065c-1.707 0-2.56 0-3.413-.853L5.359 127.279c-3.413-1.707-5.12-4.267-5.12-7.68 0-3.413 1.707-5.973 4.267-7.68L217.839.985c2.56-.853 5.12-1.707 7.68 0l230.4 110.933c2.56 1.707 5.12 4.267 5.12 7.68 0 3.413-1.707 5.973-5.12 7.68L234.053 238.212c-.854.853-1.707.853-3.414.853zM27.546 119.599l203.093 101.547 202.24-101.547L222.106 18.052 27.546 119.599z"/>
	</g>
</svg>
